# xmcd
#
# Track frame offsets: 
#        150
#        13824
#        22863
#        45869
#        80711
#        97667
#        122566
#        139851
#        155016
#        172267
#        185806
#        210128
#        225389
#        242225
#        259230
#        273236
#        293523
#        306120
#
# Disc length: 4712 seconds
#
# Revision: 3
# Processed by: cddbd v1.5.2PL0 Copyright (c) Steve Scherf et al.
# Submitted via: ExactAudioCopy v1.0b4
#
DISCID=ea126612
DTITLE=Peter Green - Man Of The World - The Anthology 1968-1988 [ disk
DTITLE=1 ]
DYEAR=2004
DGENRE=Blues Rock
TTITLE0=Man Of The World
TTITLE1=Long Grey Mare
TTITLE2=Cryin' Won't Bring You Back
TTITLE3=A Fool No More
TTITLE4=Trying To Hit My Head Against The Wall
TTITLE5=Last Train To San Antone
TTITLE6=Walkin' The Road
TTITLE7=Uranus
TTITLE8=Whatcha Gonna Do?
TTITLE9=Born On The Wild Side
TTITLE10=Lost My Love
TTITLE11=Fast Talking Woman Blues
TTITLE12=Long Way From Home
TTITLE13=Touch My Spirit
TTITLE14=Seven Stars
TTITLE15=Loser Two Times
TTITLE16=Oh Well (live)
TTITLE17=If You Let Me Love You (live)
EXTD=
EXTT0=
EXTT1=
EXTT2=
EXTT3=
EXTT4=
EXTT5=
EXTT6=
EXTT7=
EXTT8=
EXTT9=
EXTT10=
EXTT11=
EXTT12=
EXTT13=
EXTT14=
EXTT15=
EXTT16=
EXTT17=
PLAYORDER=
